HIERARCHY
ROOT hip
{
	OFFSET 0.000000 0.000000 0.000000 
	CHANNELS 6 Xposition Yposition Zposition Xrotation Zrotation Yrotation
	JOINT abdomen
	{
		OFFSET 0.000000 3.402643 0.000000 
		CHANNELS 3 Xrotation Zrotation Yrotation
		JOINT chest
		{
			OFFSET 0.000000 8.438565 -0.680529 
			CHANNELS 3 Xrotation Zrotation Yrotation
			JOINT neck
			{
				OFFSET 0.000000 10.207942 -0.272212 
				CHANNELS 3 Xrotation Zrotation Yrotation
				JOINT head
				{
					OFFSET 0.000000 3.130431 0.000000 
					CHANNELS 3 Xrotation Zrotation Yrotation
					End Site
					{
						OFFSET 0.000000 3.130435 0.000000 
					}
				}
			}
			JOINT lCollar
			{
				OFFSET 3.470700 6.669187 -0.816635 
				CHANNELS 3 Yrotation Zrotation Xrotation
				JOINT lShldr
				{
					OFFSET 3.198488 0.000000 0.000000 
					CHANNELS 3 Zrotation Yrotation Xrotation
					JOINT lForeArm
					{
						OFFSET 10.139888 0.000000 0.000000 
						CHANNELS 3 Yrotation Zrotation Xrotation
						JOINT lHand
						{
							OFFSET 8.370511 0.000000 0.000000 
							CHANNELS 3 Zrotation Yrotation Xrotation
							End Site
							{
								OFFSET 4.083176 0.000000 0.000000 
							}
						}
					}
				}
			}
			JOINT rCollar
			{
				OFFSET -3.470700 6.669187 -0.816635 
				CHANNELS 3 Yrotation Zrotation Xrotation
				JOINT rShldr
				{
					OFFSET -3.198488 0.000000 0.000000 
					CHANNELS 3 Zrotation Yrotation Xrotation
					JOINT rForeArm
					{
						OFFSET -10.139888 0.000000 0.000000 
						CHANNELS 3 Yrotation Zrotation Xrotation
						JOINT rHand
						{
							OFFSET -8.370511 0.000000 0.000000 
							CHANNELS 3 Zrotation Yrotation Xrotation
							End Site
							{
								OFFSET -4.083176 0.000000 0.000000 
							}
						}
					}
				}
			}
		}
	}
	JOINT lThigh
	{
		OFFSET 5.308129 -1.633274 1.361059 
		CHANNELS 3 Xrotation Zrotation Yrotation
		JOINT lShin
		{
			OFFSET -2.041588 -20.007561 0.000000 
			CHANNELS 3 Xrotation Zrotation Yrotation
			JOINT lFoot
			{
				OFFSET 0.000000 -19.190928 -1.224953 
				CHANNELS 3 Xrotation Yrotation Zrotation
				End Site
				{
					OFFSET 0.000000 -2.449906 4.627600 
				}
			}
		}
	}
	JOINT rThigh
	{
		OFFSET -5.308129 -1.633274 1.361059 
		CHANNELS 3 Xrotation Zrotation Yrotation
		JOINT rShin
		{
			OFFSET 2.041588 -20.007561 0.000000 
			CHANNELS 3 Xrotation Zrotation Yrotation
			JOINT rFoot
			{
				OFFSET 0.000000 -19.190928 -1.224953 
				CHANNELS 3 Xrotation Yrotation Zrotation
				End Site
				{
					OFFSET 0.000000 -2.449906 4.627600 
				}
			}
		}
	}
}
MOTION
Frames: 18
Frame Time: 0.033333
-1.501984 82.334030 5.513210 2.744141 -0.019531 0.390622 55.507813 -8.828125 -22.042513 2.431641 6.474609 2.871094 -0.048828 0.000000 0.000000 -47.968750 15.839844 2.951884 1.992188 -2.001953 0.000341 -37.285152 -14.716797 -62.452667 0.107422 0.000000 -0.185547 11.328125 49.687504 7.050781 -2.001953 1.992188 0.000000 29.833986 3.183594 -45.692810 19.521484 -0.566406 -2.021391 -12.675782 -48.193359 7.607422 -55.828682 36.034126 5.418087 21.837799 20.433628 3.143052 21.046200 -6.362644 -12.326991 -48.580910 -38.473392 -7.923867 19.690599 -25.012596 -3.822083 8.130843 0.974156 14.143813 
-1.647080 83.445847 5.065566 2.539063 -0.019531 0.371094 61.015625 -8.769532 -14.169922 4.501953 7.070312 5.185547 -0.048828 0.000000 0.000000 -53.750000 6.523438 -2.489125 1.992188 -2.001953 0.000341 -32.382816 -18.115236 -66.699219 -1.210938 0.019531 -0.166019 11.748047 49.580082 7.246093 -2.001953 1.992188 0.000000 25.507814 -1.455078 -51.328373 15.322266 0.468750 -2.050861 -13.232421 -47.958984 8.039623 -67.313118 38.475754 1.341698 18.945349 24.734547 3.569514 18.935776 -6.882378 -14.863501 -40.983570 -36.127888 -18.791964 -23.084782 -30.935997 5.086703 24.119341 4.015977 14.930621 
-2.027469 84.395882 4.607619 2.246094 -0.019531 0.322262 64.404297 -8.906250 -7.403855 5.937500 7.666016 7.061850 -0.048828 0.000000 0.000000 -55.488277 0.166016 -8.564425 1.992188 -2.001953 0.000341 -23.408203 -12.490233 -71.123047 -3.505859 0.039063 -0.175781 12.080078 49.550781 7.439073 -2.001953 1.992188 0.000000 23.730467 -6.230468 -55.634766 14.306641 0.712891 -2.080078 -13.437500 -47.958984 8.234936 -78.033623 40.300980 -3.275557 17.647951 26.121965 3.608849 16.628038 -6.854205 -16.301308 -48.191204 -40.289124 -19.843500 -32.185223 -25.593771 6.031002 24.957756 3.757783 11.914038 
-2.524521 85.129898 4.138876 1.962891 -0.019531 0.283200 65.175781 -8.144532 -3.429118 6.445313 8.300781 7.958984 -0.048828 0.000000 0.000000 -53.291019 -3.359375 -12.177735 1.992188 -2.001953 0.000341 -17.978514 -5.087890 -70.069221 -5.683594 0.058594 -0.136719 12.187500 49.521484 7.468366 -2.001953 1.992188 0.000000 21.640625 -8.476563 -55.146488 15.107421 0.527344 -2.031250 -13.398438 -48.115234 8.232421 -84.970436 41.118694 -6.487174 18.204290 25.429960 3.555766 15.157858 -6.704111 -16.625217 -55.435135 -41.917259 -18.530029 -33.533863 -24.403345 6.045346 23.412951 3.866253 12.395826 
-2.960303 84.432945 4.055870 1.699219 -0.019531 0.244141 63.994141 -6.748047 -0.595703 6.318359 9.042968 8.417968 -0.048828 0.000000 0.000000 -50.488281 -6.298829 -14.297946 1.992188 -2.001953 0.000341 -16.425779 -3.251953 -65.918526 -6.992188 0.058594 -0.146484 12.128906 49.521484 7.458600 -2.001953 1.992188 0.000000 19.501953 -9.853516 -51.427456 17.158203 0.048828 -2.041023 -13.320312 -48.320313 8.254425 -86.166954 41.882595 -6.770592 22.623785 20.287773 3.190470 14.343003 -6.155218 -14.256590 -59.701828 -39.222595 -15.111546 -25.439466 -28.915712 5.259176 19.373190 3.761302 17.782297 
-3.314101 83.210045 4.488551 1.435547 -0.019531 0.185547 61.630859 -5.634766 1.073278 5.771485 9.599609 8.585611 -0.048828 0.000000 0.000000 -48.779297 -8.496094 -15.157692 1.992188 -2.001953 0.000341 -16.269531 -3.750000 -60.664703 -8.232423 0.048828 -0.136719 11.865233 49.550777 7.324218 -2.001953 1.992188 0.000000 18.417971 -10.224608 -46.056419 19.804688 -0.585938 -1.992191 -13.037110 -48.564453 8.056641 -80.281349 42.391636 -3.358407 26.880106 11.783525 1.559430 15.640762 -5.300052 -9.763813 -82.729416 -47.106579 3.526037 28.831427 -9.324258 -1.110460 -5.320036 -0.844415 11.910273 
-3.606619 81.925346 5.307003 1.308594 -0.019531 0.166016 58.232426 -5.322266 1.444407 4.824219 9.804688 8.535157 -0.048828 0.000000 0.000000 -47.070309 -8.925781 -15.138231 1.992188 -2.001953 0.000341 -17.275391 -4.169922 -54.951172 -10.527343 0.058594 -0.097666 11.337892 49.619141 6.970330 -2.001953 1.992188 0.000000 18.837889 -9.824219 -39.638672 22.539063 -1.220703 -1.933594 -12.617188 -48.769531 7.756329 -68.838165 40.198776 2.427531 27.448355 5.154608 -0.026192 19.533848 -4.743423 -6.094812 -71.517395 -49.458496 -0.575698 30.367752 5.370561 2.761621 -2.562168 -0.994052 6.665701 
-3.722776 81.217278 6.518447 1.279297 -0.019531 0.156247 53.574219 -5.458984 0.673828 3.447266 9.843651 8.214635 -0.048828 0.000000 0.000000 -44.267578 -7.988281 -14.218751 1.992188 -2.001953 0.000341 -19.287107 -2.343750 -49.648834 -14.101563 0.068359 -0.039074 10.615234 49.755863 6.474609 -2.001953 1.992188 0.000000 19.443359 -11.689453 -32.384792 26.005859 -2.080078 -1.816052 -11.865233 -49.003906 7.287553 -57.986809 35.477417 6.030571 25.995865 1.101975 -0.964704 23.738028 -4.337064 -3.918622 -59.333988 -41.463284 -3.816170 28.088608 4.403158 2.295926 5.788185 -1.308018 7.080663 
-3.680301 81.584961 8.133668 1.337891 -0.019531 0.185547 47.988281 -5.859375 -0.712890 1.757813 9.804688 7.706741 -0.048828 0.000000 0.000000 -39.853516 -6.386719 -12.794055 1.992188 -2.001953 0.000341 -21.699219 1.083984 -44.257813 -18.730469 0.048831 0.000000 9.667969 49.921875 5.857082 -2.001953 1.992188 0.000000 19.570314 -16.406252 -25.139477 30.712889 -3.173828 -1.582031 -10.693360 -49.267578 6.464844 -48.368553 27.890345 5.318806 22.934175 -0.346420 -1.101490 28.539042 -4.444004 -2.448953 -47.267792 -29.525904 -4.620177 23.942648 -1.230463 0.771946 16.863010 -1.004575 9.037765 
-3.584039 78.288063 10.046125 1.542969 -0.019531 0.214844 40.693363 -6.660156 -3.038242 -0.507813 9.677734 6.933594 -0.048828 0.000000 0.000000 -31.855469 -3.925781 -10.322266 1.992188 -2.001953 0.000341 -24.863283 6.210938 -35.576172 -24.873047 0.029297 0.087891 8.750000 50.175781 5.117187 -2.001953 1.992188 0.000000 20.888672 -20.351563 -15.970197 35.644531 -4.277344 -1.191406 -9.716797 -49.472660 5.703125 -38.163780 19.394527 1.452516 18.833578 -1.351000 -1.017710 33.530903 -4.627029 -1.204878 -36.315769 -21.590118 -4.791852 20.300682 -2.607161 0.399719 22.956877 -1.041546 9.170860 
-3.450166 74.553040 12.086963 1.826172 -0.019531 0.273438 32.500004 -8.095703 -5.753328 -3.046875 9.492188 5.986328 -0.048828 0.000000 0.000000 -20.117188 -1.220703 -7.070313 1.992188 -2.001953 0.000341 -28.759766 12.812500 -23.865801 -33.886715 0.058594 0.146474 7.900391 50.605469 4.275125 -2.001953 1.992188 0.000000 25.312498 -23.701174 -6.630859 40.498047 -5.322266 -0.751953 -9.023438 -49.541016 5.002336 -28.135784 13.316412 -2.058998 15.094748 -3.092907 -0.938803 34.935799 -4.624982 -0.294711 -25.174149 -19.266163 -5.949687 18.510960 3.661168 1.217327 21.194519 -2.778399 5.540851 
-3.295464 70.603447 14.075574 2.167969 -0.019531 0.322266 25.898436 -9.511719 -7.236329 -5.058594 9.355468 5.400391 -0.048828 0.000000 0.000000 -9.199219 0.214844 -4.853516 1.992188 -2.001953 0.000341 -31.914063 19.062500 -13.297593 -44.355469 0.000000 0.283203 7.119140 51.074215 3.339844 -2.001953 1.992188 0.000000 30.625000 -28.613283 -1.088663 45.517582 -6.347656 -0.164936 -8.417968 -49.501957 4.308980 -18.278614 8.817065 -3.807042 13.632964 -5.056471 -0.739649 29.416338 -4.598133 0.442771 -13.678662 -15.561976 -7.061479 17.701561 7.029934 1.338634 15.781398 -4.022485 2.802538 
-3.133000 65.245476 15.878939 2.480469 -0.019531 0.341794 21.787107 -10.244140 -6.660155 -6.230469 9.443359 5.421525 -0.048828 0.000000 0.000000 -2.890625 0.322266 -5.126898 1.992188 -2.001953 0.000341 -35.000000 22.490234 -5.298999 -52.988281 -0.078125 0.380873 6.621094 51.464848 2.712718 -2.001953 1.992188 0.000000 34.941406 -32.734375 1.586517 50.517582 -7.324219 0.489526 -8.222655 -49.492188 3.976952 -10.419572 4.736118 -5.425606 18.621742 -7.539116 -1.155523 17.081553 -4.458868 1.702105 -4.197834 -11.946286 -7.789243 19.329569 9.196250 1.414735 8.193841 -5.372500 0.485268 
-2.981692 58.099358 17.292492 2.792969 -0.019531 0.429688 19.257813 -10.439453 -5.058593 -6.865235 9.687501 5.751953 -0.048828 0.000000 0.000000 -0.380859 -0.068359 -6.435546 1.992188 -2.001953 0.000341 -39.843746 24.277346 0.111438 -57.871094 -0.117188 0.429707 6.748047 51.660156 2.675781 -2.001953 1.992188 0.000000 38.066406 -33.378906 6.049314 54.970699 -8.144533 1.113281 -8.349609 -49.414063 3.850006 -4.262767 1.824781 -6.576679 22.605192 -9.394519 -1.527553 6.377888 -4.579650 2.876751 1.142265 -9.999278 -8.161895 23.610382 11.315310 2.115185 0.527612 -6.638650 -1.546415 
-4.094919 49.825142 20.075333 3.056641 -0.019531 0.458981 17.656248 -10.556641 -3.955079 -7.255858 9.863280 5.978235 -0.048828 0.000000 0.000000 0.458984 -0.644531 -6.875111 1.992188 -2.001953 0.000341 -46.630863 25.888672 3.095703 -60.742191 -0.156250 0.458984 7.216797 51.738285 2.976419 -2.001953 1.992188 0.000000 41.425781 -31.279295 13.134765 59.355473 -8.896484 1.778854 -8.876953 -49.335934 4.035563 -1.812196 0.575549 -7.029639 24.428507 -10.170160 -1.781898 1.677968 -4.656373 3.433359 3.306400 -9.376597 -8.353727 25.602058 12.223108 2.481149 -3.040272 -7.186543 -2.474592 
-6.682473 42.306370 23.801817 3.212891 -0.019531 0.468747 16.904297 -10.800781 -3.857421 -7.490235 9.863280 6.005860 -0.048828 0.000000 0.000000 0.058594 -1.220703 -5.820522 1.992188 -2.001953 0.000341 -53.056641 26.542971 5.180146 -63.105469 -0.175781 0.478516 7.910156 51.767582 3.542828 -2.001953 1.992188 0.000000 45.224613 -29.042969 20.815573 64.482422 -9.716797 2.667663 -9.638673 -49.160156 4.511719 -11.501996 3.241791 -6.295267 65.145538 -21.234907 -12.596558 -38.552769 -6.764483 11.116711 -4.422848 -16.575882 -4.518289 65.251160 24.960415 15.255309 -40.731533 -3.962188 -7.624832 
-6.443136 41.179245 24.283298 3.261719 -0.019531 0.478516 16.826172 -10.957032 -4.054590 -7.519532 9.814453 5.957031 -0.048828 0.000000 0.000000 -1.328125 -1.738281 -4.385062 1.992188 -2.001953 0.000341 -58.457027 25.624998 8.471020 -65.576172 -0.185547 0.498047 8.759766 51.787109 4.287109 -2.001953 1.992188 0.000000 49.404297 -27.744141 27.934906 71.396484 -10.693359 3.927593 -10.869141 -48.759766 5.432110 -11.270411 3.708560 -3.733481 69.497459 -21.959364 -14.077435 -42.602818 -8.102177 14.713247 -5.702882 -16.589527 -1.476896 69.510933 25.634708 17.014135 -41.566936 -4.374473 -6.912023 
-5.243352 44.022552 23.605675 3.125000 -0.019531 0.439450 16.923828 -10.996094 -4.384766 -7.509766 9.765625 5.859375 -0.048828 0.000000 0.000000 -2.705078 -2.119140 -2.890625 1.992188 -2.001953 0.000341 -63.505863 24.101563 12.685546 -67.763672 -0.205078 0.507812 9.814453 51.767578 5.281108 -2.001953 1.992188 0.000000 53.564453 -26.894531 35.151833 79.101563 -11.562499 5.498046 -12.294922 -48.212891 6.513672 -9.524632 3.298620 -1.888777 57.774666 -19.954514 -10.065465 -27.727898 -6.296952 14.509811 -4.207306 -13.872760 0.568261 55.938454 22.843163 11.602163 -34.458443 -5.953731 -7.713346 
